<svg width="42" height="48" viewBox="0 0 42 48" fill="none" xmlns="http://www.w3.org/2000/svg">
<path d="M11.8945 48C8.69541 41.3434 10.399 37.5291 12.8577 33.9355C15.5503 30 16.2442 26.1043 16.2442 26.1043C16.2442 26.1043 18.3608 28.8559 17.5141 33.1594C21.2534 28.9969 21.9591 22.365 21.3944 19.8251C29.8467 25.7318 33.459 38.5215 28.5908 48C54.4834 33.3502 35.0314 11.4295 31.6449 8.96023C32.7738 11.4294 32.9879 15.6094 30.7074 17.638C26.8472 2.99997 17.3025 0 17.3025 0C18.4313 7.54893 13.2105 15.8037 8.17611 21.9717C7.99926 18.9616 7.81134 16.8845 6.22842 14.0039C5.8731 19.4721 1.69413 23.9296 0.562465 29.4084C-0.970416 36.828 1.71068 42.2606 11.8945 48Z" fill="black"/>
</svg>
