<svg width="79" height="79" viewBox="0 0 79 79" fill="none" xmlns="http://www.w3.org/2000/svg">
<path d="M65.2439 20.4307H13.7562C12.8173 20.4307 12.056 21.1918 12.056 22.1309V47.8096C12.056 48.7487 12.8173 49.5098 13.7562 49.5098C14.6951 49.5098 15.4564 48.7487 15.4564 47.8096V23.8309H63.5437V47.8095C63.5437 48.7485 64.305 49.5097 65.2439 49.5097C66.1828 49.5097 66.9441 48.7485 66.9441 47.8095V22.1307C66.944 21.1918 66.1827 20.4307 65.2439 20.4307Z" fill="white"/>
<path d="M77.47 53.8806H74.3385V18.1755C74.3385 15.3416 72.033 13.0361 69.1992 13.0361H9.80096C6.96698 13.0361 4.66163 15.3416 4.66163 18.1755V53.8806H1.53017C0.685079 53.8806 0 54.5655 0 55.4108V58.4146C0 62.5771 3.38636 65.9635 7.54883 65.9635H71.4512C75.6136 65.9635 79 62.5771 79 58.4146V55.4108C79.0002 54.5655 78.3152 53.8806 77.47 53.8806ZM8.06187 18.1755C8.06187 17.2167 8.84215 16.4364 9.80096 16.4364H69.1989C70.158 16.4364 70.938 17.2165 70.938 18.1755V53.8806H47.9168C47.8084 53.8771 47.6965 53.8863 47.5854 53.9078C46.8651 54.0463 46.3447 54.6768 46.3447 55.4101C46.3447 56.7018 45.2939 57.7524 44.0026 57.7524H34.9977C33.7061 57.7524 32.6556 56.7016 32.6556 55.4101C32.6556 54.5533 31.9457 53.8619 31.09 53.8803H8.06187V18.1755ZM75.9398 58.4146C75.9398 60.8897 73.9261 62.9031 71.4513 62.9031H7.54883C5.07391 62.9031 3.06033 60.8897 3.06033 58.4146V56.9409H29.8159C30.4774 59.1769 32.5501 60.8129 34.9975 60.8129H44.0025C46.4499 60.8129 48.5226 59.1767 49.1842 56.9409H75.94V58.4146H75.9398Z" fill="white"/>
<path d="M42.0199 30.3134C41.3558 29.6494 40.2796 29.6494 39.6153 30.3134L28.923 41.0062C28.2591 41.6701 28.2591 42.7466 28.923 43.4106C29.2551 43.7426 29.6902 43.9085 30.1251 43.9085C30.5603 43.9085 30.9952 43.7423 31.3273 43.4106L42.0199 32.718C42.6838 32.054 42.6838 30.9775 42.0199 30.3134Z" fill="white"/>
<path d="M48.3575 36.5097C47.6934 35.8457 46.6172 35.8457 45.9531 36.5097L41.6936 40.7692C41.0296 41.4331 41.0296 42.5097 41.6936 43.1738C42.0256 43.5058 42.4607 43.6717 42.8957 43.6717C43.331 43.6717 43.7658 43.5058 44.0978 43.1738L48.3573 38.9142C49.0214 38.2503 49.0214 37.1738 48.3575 36.5097Z" fill="white"/>
<rect width="79" height="79" stroke="#FFB800"/>
</svg>
