<svg width="80" height="80" viewBox="0 0 80 80" fill="none" xmlns="http://www.w3.org/2000/svg">
<path d="M65.4042 52.6088C63.4494 52.6088 61.5923 53.3744 60.1914 54.7591C58.7905 56.16 58.0086 57.9845 58.0086 59.9393C58.0086 61.8941 58.7742 63.7185 60.1914 65.1195C61.6086 66.5041 63.4494 67.2697 65.4042 67.2697C69.4115 67.2697 72.6695 63.9792 72.6695 59.9393C72.6695 55.8994 69.4115 52.6088 65.4042 52.6088ZM65.4042 64.0118C63.1562 64.0118 61.2665 62.1547 61.2665 59.9393C61.2665 57.7238 63.1562 55.8668 65.4042 55.8668C67.6196 55.8668 69.4115 57.6912 69.4115 59.9393C69.4115 62.1873 67.6196 64.0118 65.4042 64.0118ZM67.2938 28.1901C67.0006 27.9132 66.6096 27.7666 66.2024 27.7666H57.8457C56.9497 27.7666 56.2167 28.4996 56.2167 29.3956V42.7534C56.2167 43.6493 56.9497 44.3823 57.8457 44.3823H71.1057C72.0016 44.3823 72.7347 43.6493 72.7347 42.7534V33.8102C72.7347 33.354 72.5392 32.9142 72.1971 32.6047L67.2938 28.1901ZM69.4767 41.1244H59.4747V31.0083H65.5671L69.4767 34.5269V41.1244ZM25.6241 52.6088C23.6693 52.6088 21.8123 53.3744 20.4113 54.7591C19.0104 56.16 18.2285 57.9845 18.2285 59.9393C18.2285 61.8941 18.9941 63.7185 20.4113 65.1195C21.8285 66.5041 23.6693 67.2697 25.6241 67.2697C29.6314 67.2697 32.8894 63.9792 32.8894 59.9393C32.8894 55.8994 29.6314 52.6088 25.6241 52.6088ZM25.6241 64.0118C23.3761 64.0118 21.4865 62.1547 21.4865 59.9393C21.4865 57.7238 23.3761 55.8668 25.6241 55.8668C27.8395 55.8668 29.6314 57.6912 29.6314 59.9393C29.6314 62.1873 27.8395 64.0118 25.6241 64.0118ZM14.7587 54.6124H11.4844V50.2793C11.4844 49.3834 10.7514 48.6503 9.85543 48.6503C8.95948 48.6503 8.22643 49.3834 8.22643 50.2793V56.2414C8.22643 57.1374 8.95948 57.8704 9.85543 57.8704H14.7587C15.6547 57.8704 16.3877 57.1374 16.3877 56.2414C16.3877 55.3455 15.6547 54.6124 14.7587 54.6124ZM23.0177 45.7344C23.0177 44.8385 22.2847 44.1054 21.3887 44.1054H1.629C0.733048 44.1054 0 44.8385 0 45.7344C0 46.6304 0.733048 47.3634 1.629 47.3634H21.3887C22.2847 47.3634 23.0177 46.6467 23.0177 45.7344ZM4.93586 39.8537L24.6956 39.9678C25.5915 39.9678 26.3246 39.251 26.3409 38.3551C26.3572 37.4428 25.6241 36.7098 24.7282 36.7098L4.96844 36.5958C4.95215 36.5958 4.95215 36.5958 4.95215 36.5958C4.0562 36.5958 3.32315 37.3125 3.32315 38.2085C3.30686 39.1207 4.03991 39.8537 4.93586 39.8537ZM8.25901 32.4581H28.0187C28.9147 32.4581 29.6477 31.725 29.6477 30.8291C29.6477 29.9332 28.9147 29.2001 28.0187 29.2001H8.25901C7.36306 29.2001 6.63001 29.9332 6.63001 30.8291C6.63001 31.725 7.36306 32.4581 8.25901 32.4581ZM79.3973 30.259L67.7337 20.599C67.4404 20.3547 67.0821 20.2243 66.6911 20.2243H52.975V14.36C52.975 13.464 52.2419 12.731 51.346 12.731H9.85543C8.95948 12.731 8.22643 13.464 8.22643 14.36V26.2842C8.22643 27.1802 8.95948 27.9132 9.85543 27.9132C10.7514 27.9132 11.4844 27.1802 11.4844 26.2842V15.9889H49.7332V54.6124H36.3755C35.4795 54.6124 34.7465 55.3455 34.7465 56.2414C34.7465 57.1374 35.4795 57.8704 36.3755 57.8704H56.2655C57.1615 57.8704 57.8945 57.1374 57.8945 56.2414C57.8945 55.3455 57.1615 54.6124 56.2655 54.6124H52.9912V23.4823H66.1209L76.742 32.2789L76.628 54.5799H74.9338C74.0379 54.5799 73.3048 55.3129 73.3048 56.2089C73.3048 57.1048 74.0379 57.8379 74.9338 57.8379H78.2407C79.1366 57.8379 79.8697 57.1211 79.8697 56.2252L80 31.5296C79.9837 31.0409 79.7719 30.5685 79.3973 30.259Z" fill="white"/>
<rect width="80" height="80" stroke="#FFB800"/>
</svg>
