<svg width="64" height="64" viewBox="0 0 64 64" fill="none" xmlns="http://www.w3.org/2000/svg">
<path d="M34.1227 42.13H51.184C51.8238 42.13 52.2503 41.7035 52.2503 41.0637V31.4667C52.2503 30.8269 51.8238 30.4004 51.184 30.4004H34.1227C33.4829 30.4004 33.0564 30.8269 33.0564 31.4667V41.0637C33.0563 41.7034 33.4829 42.13 34.1227 42.13ZM35.189 32.533H50.1177V39.9973H35.189V32.533Z" fill="white"/>
<path d="M5.33171 28.2678H13.8624C14.5022 28.2678 14.9287 27.8413 14.9287 27.2015C14.9287 26.5617 14.5022 26.1353 13.8624 26.1353H5.33171C4.69191 26.1353 4.26542 26.5617 4.26542 27.2015C4.26542 27.8413 4.69191 28.2678 5.33171 28.2678Z" fill="white"/>
<path d="M18.1277 28.2678H26.6584C27.2982 28.2678 27.7247 27.8413 27.7247 27.2015C27.7247 26.5617 27.2982 26.1353 26.6584 26.1353H18.1277C17.4879 26.1353 17.0614 26.5617 17.0614 27.2015C17.0614 27.8413 17.4879 28.2678 18.1277 28.2678Z" fill="white"/>
<path d="M5.33171 32.533H19.194C19.8338 32.533 20.2603 32.1065 20.2603 31.4667C20.2603 30.8269 19.8338 30.4004 19.194 30.4004H5.33171C4.69191 30.4004 4.26542 30.8269 4.26542 31.4667C4.26542 32.1065 4.69191 32.533 5.33171 32.533Z" fill="white"/>
<path d="M26.6583 30.4009H23.4593C22.8195 30.4009 22.393 30.8274 22.393 31.4672C22.393 32.107 22.8195 32.5335 23.4593 32.5335H26.6583C27.2981 32.5335 27.7246 32.107 27.7246 31.4672C27.7246 30.8274 27.2981 30.4009 26.6583 30.4009Z" fill="white"/>
<path d="M63.0203 17.1781C62.2739 16.2184 61.3142 15.6852 60.1412 15.5786L57.582 15.2684V12.2729V10.1403C57.582 7.7944 55.6626 5.875 53.3167 5.875H4.26529C1.9194 5.87488 0 7.79428 0 10.1403V12.273V20.8037V44.263C0 46.189 1.29422 47.8266 3.05567 48.3515C3.00194 50.5086 4.63405 52.3812 6.82462 52.5804L56.0892 58.1253C56.1958 58.1253 56.4091 58.1253 56.5157 58.1253C58.6484 58.1253 60.5678 56.5258 60.781 54.4998L63.98 20.2705C64.0866 19.2041 63.7667 18.0311 63.0203 17.1781ZM2.13271 13.3393H55.4494V16.1118V19.7373H2.13271V13.3393ZM4.26529 8.00758H53.3166C54.4896 8.00758 55.4493 8.96728 55.4493 10.1403V11.2066H2.13271V10.1403C2.13271 8.96728 3.09241 8.00758 4.26529 8.00758ZM2.13271 44.2629V21.8699H55.4494V44.2629C55.4494 45.4359 54.4897 46.3956 53.3167 46.3956H4.37201H4.26542C3.09241 46.3956 2.13271 45.4359 2.13271 44.2629ZM61.8473 19.8439L58.6483 54.0732C58.5417 55.2462 57.4753 56.0992 56.3024 55.9926L7.14439 50.4477C6.0781 50.3411 5.33158 49.488 5.22499 48.5283H53.3166C55.6625 48.5283 57.5819 46.6089 57.5819 44.263V20.8036V17.2847L60.0345 17.498C60.5677 17.498 61.1008 17.8179 61.4207 18.2444C61.7407 18.6709 61.954 19.3107 61.8473 19.8439Z" fill="white"/>
<rect width="64" height="64" stroke="#FFB800"/>
</svg>
