<svg width="68" height="68" viewBox="0 0 68 68" fill="none" xmlns="http://www.w3.org/2000/svg">
<path d="M40.6448 31.875C41.3778 31.875 41.9729 31.2799 41.9729 30.5469C41.9729 29.8138 41.3778 29.2188 40.6448 29.2188C39.9102 29.2188 39.3167 29.8138 39.3167 30.5469C39.3167 31.2799 39.9102 31.875 40.6448 31.875Z" fill="white"/>
<path d="M27.3635 31.875C28.0966 31.875 28.6917 31.2799 28.6917 30.5469C28.6917 29.8138 28.0966 29.2188 27.3635 29.2188C26.6289 29.2188 26.0354 29.8138 26.0354 30.5469C26.0354 31.2799 26.6289 31.875 27.3635 31.875Z" fill="white"/>
<path d="M4.78125 63.7567V66.6719C4.78125 67.4055 5.37579 68 6.10938 68H61.8906C62.6242 68 63.2188 67.4055 63.2188 66.6719V63.7542C63.2188 58.4723 60.2517 53.5909 54.7608 51.5868C56.7452 49.8535 57.9514 47.3145 57.9514 44.569C57.9514 43.8359 57.3568 43.2408 56.6233 43.2408C53.4285 43.2408 50.7359 40.9815 50.0874 37.9844H53.926C56.1205 37.9844 57.9062 36.1971 57.9062 34V27.8906C57.9062 26.1584 56.7955 24.6813 55.25 24.134V21.25C55.25 9.53293 45.7191 0 34.0042 0C22.2622 0 12.75 9.50284 12.75 21.25V24.1361C11.2045 24.6855 10.0938 26.162 10.0938 27.8906V34C10.0938 36.1971 11.8831 37.9844 14.0823 37.9844H17.9126C17.2651 40.9815 14.5751 43.2408 11.3835 43.2408C10.6499 43.2408 10.0554 43.8359 10.0554 44.569C10.0554 47.3181 11.2647 49.8597 13.2543 51.594C7.78458 53.5997 4.78125 58.5304 4.78125 63.7567ZM55.1831 45.7861C54.7696 48.0133 53.2371 49.9038 51.0955 50.7531L43.0494 49.7082L42.1898 46.3484C44.6982 44.8486 46.6971 42.7293 48.0366 40.2417C49.2864 43.1376 51.9707 45.2854 55.1831 45.7861ZM44.6489 23.9062C40.9799 23.9062 37.9948 20.8837 37.9948 17.1686C37.9948 16.435 37.4002 15.8405 36.6666 15.8405C35.9336 15.8405 35.3385 16.435 35.3385 17.1686C35.3385 20.8837 32.3533 23.9062 28.6833 23.9062H20.7229C20.7229 16.5829 26.6808 10.625 34.0042 10.625C41.3415 10.625 47.2854 16.5632 47.2854 23.9062H44.6489ZM20.7188 26.5625H28.6833C32.068 26.5625 35.0366 24.7317 36.6666 21.9997C38.2967 24.7317 41.2647 26.5625 44.6489 26.5625H47.2812V32.6719C47.2812 37.6954 44.4989 42.2333 40.0207 44.5145C38.1468 45.4691 36.1224 45.9531 34.0042 45.9531C31.8916 45.9531 29.8735 45.4727 28.0048 44.5254C26.7508 43.8899 25.6089 43.0619 24.6103 42.0627C22.1008 39.5548 20.7188 36.2194 20.7188 32.6719V26.5625ZM28.2782 47.55C30.0966 48.2524 32.0161 48.6094 34.0042 48.6094C36 48.6094 37.9268 48.2493 39.753 47.5396L40.596 50.8366C40.1535 54.1247 37.3639 56.5781 34.0171 56.5781C30.6709 56.5781 27.8813 54.1258 27.4377 50.8387L28.2782 47.55ZM55.25 34C55.25 34.7325 54.656 35.3281 53.926 35.3281H49.9375V26.5625H53.926C54.656 26.5625 55.25 27.1581 55.25 27.8906V34ZM34.0042 2.65625C44.2546 2.65625 52.5938 10.9975 52.5938 21.25V23.9062H49.9417C49.9417 15.1007 42.8149 7.96875 34.0042 7.96875C25.2162 7.96875 18.0667 15.1183 18.0667 23.9062H15.4062V21.25C15.4062 10.9767 23.7252 2.65625 34.0042 2.65625ZM12.75 34V27.8906C12.75 27.1596 13.3466 26.5641 14.0823 26.5625H18.0625V35.3281H14.0823C13.3477 35.3281 12.75 34.7325 12.75 34ZM19.9655 40.238C20.6933 41.5828 21.6199 42.83 22.7322 43.9412C23.6681 44.8777 24.7114 45.687 25.8403 46.3609L24.9848 49.7087L16.9165 50.7556C14.7723 49.9059 13.2377 48.0143 12.8237 45.7861C16.035 45.2849 18.7177 43.135 19.9655 40.238ZM16.7759 53.4518L16.9222 53.4332H16.9232C16.9243 53.4326 16.9253 53.4326 16.9263 53.4326L25.044 52.3795C26.1194 56.3758 29.7438 59.2344 34.0171 59.2344C38.2905 59.2344 41.9143 56.3758 42.9892 52.379C43.3939 52.4319 40.857 52.1024 51.2568 53.4524C57.0793 54.2088 60.5625 58.5724 60.5625 63.7542V65.3438H7.4375V63.7567C7.4375 58.672 10.9186 54.2124 16.7759 53.4518Z" fill="white"/>
<path d="M30.4535 41.0038C31.5684 41.5294 32.7632 41.796 34.0036 41.796C35.2155 41.796 36.3865 41.5403 37.4853 41.036C38.1519 40.7304 38.444 39.9418 38.1379 39.2752C37.8324 38.6085 37.0438 38.3159 36.3771 38.622C35.6285 38.9655 34.8301 39.1398 34.0041 39.1398C33.158 39.1398 32.344 38.9587 31.586 38.6013C30.9225 38.2884 30.1313 38.5727 29.8185 39.2363C29.5056 39.8998 29.7899 40.6915 30.4535 41.0038Z" fill="white"/>
<path d="M45.9573 61.8906H51.2698C52.0034 61.8906 52.5979 61.2961 52.5979 60.5625C52.5979 59.8289 52.0034 59.2344 51.2698 59.2344H45.9573C45.2237 59.2344 44.6292 59.8289 44.6292 60.5625C44.6292 61.2961 45.2237 61.8906 45.9573 61.8906Z" fill="white"/>
<path d="M56.5781 59.2344C57.3112 59.2344 57.9062 59.8294 57.9062 60.5625C57.9062 61.2956 57.3112 61.8906 56.5781 61.8906C55.8451 61.8906 55.25 61.2956 55.25 60.5625C55.25 59.8294 55.8451 59.2344 56.5781 59.2344Z" fill="white"/>
<rect width="68" height="68" stroke="#FFB800"/>
</svg>
